<svg id="HISTORY" xmlns="http://www.w3.org/2000/svg" width="39" height="39" viewBox="0 0 39 39">
  <circle id="Ellipse_26" data-name="Ellipse 26" cx="19.5" cy="19.5" r="19.5" fill="#6cc55e" opacity="0.3"/>
  <g id="history-24px_1_" data-name="history-24px (1)" transform="translate(3.75 5.154)">
    <path id="Path_150" data-name="Path 150" d="M0,0H29.512V29.512H0Z" fill="none"/>
    <path id="Path_151" data-name="Path 151" d="M15.078,3C9.247,3,4.52,7.424,4.52,12.881H1l4.564,4.271.082.154,4.74-4.424H6.866A7.956,7.956,0,0,1,15.078,5.2a7.956,7.956,0,0,1,8.212,7.685,7.956,7.956,0,0,1-8.212,7.685,8.433,8.433,0,0,1-5.8-2.262L7.617,19.863a10.877,10.877,0,0,0,7.461,2.9c5.831,0,10.559-4.424,10.559-9.881S20.909,3,15.078,3ZM13.9,8.489v5.489l4.986,2.767.9-1.405-4.13-2.295V8.489Z" transform="translate(0.625 1.875)" fill="#3d8233"/>
  </g>
</svg>
