<svg xmlns="http://www.w3.org/2000/svg" width="39" height="39" viewBox="0 0 39 39">
  <g id="link_account" transform="translate(-312 -925)">
    <path id="link-solid" d="M13.183,7.483a6.132,6.132,0,0,1,.015,8.662l-.015.015L10.47,18.872A6.135,6.135,0,0,1,1.794,10.2l1.5-1.5a.645.645,0,0,1,1.1.428,7.438,7.438,0,0,0,.391,2.128.65.65,0,0,1-.153.671l-.528.528a2.906,2.906,0,1,0,4.084,4.136L10.9,13.876a2.906,2.906,0,0,0,0-4.11,3.024,3.024,0,0,0-.417-.346.647.647,0,0,1-.28-.509,1.608,1.608,0,0,1,.472-1.2l.85-.85a.648.648,0,0,1,.831-.07,6.155,6.155,0,0,1,.828.694Zm5.689-5.689a6.142,6.142,0,0,0-8.677,0L7.483,4.506l-.015.015a6.137,6.137,0,0,0,.843,9.356.648.648,0,0,0,.831-.07l.85-.85a1.608,1.608,0,0,0,.472-1.2.647.647,0,0,0-.28-.509,3.024,3.024,0,0,1-.417-.346,2.906,2.906,0,0,1,0-4.11l2.712-2.712a2.906,2.906,0,1,1,4.084,4.136l-.528.528a.65.65,0,0,0-.153.671,7.438,7.438,0,0,1,.391,2.128.645.645,0,0,0,1.1.428l1.5-1.5a6.142,6.142,0,0,0,0-8.677Z" transform="translate(321 934.334)" fill="#00c1f3"/>
    <circle id="Ellipse_26" data-name="Ellipse 26" cx="19.5" cy="19.5" r="19.5" transform="translate(312 925)" fill="#00c1f3" opacity="0.21"/>
  </g>
</svg>
