<svg xmlns="http://www.w3.org/2000/svg" width="39" height="39" viewBox="0 0 39 39">
  <g id="payment_plan" transform="translate(-312 -925)">
    <circle id="Ellipse_26" data-name="Ellipse 26" cx="19.5" cy="19.5" r="19.5" transform="translate(312 925)" fill="#cc9d00" opacity="0.28"/>
    <path id="dollar-sign-solid" d="M10.086,11.214,4.9,9.7a1.417,1.417,0,0,1,.4-2.777H8.481a2.933,2.933,0,0,1,1.643.5.749.749,0,0,0,.937-.1l1.672-1.634a.779.779,0,0,0-.086-1.177A6.794,6.794,0,0,0,8.491,3.075V.769A.771.771,0,0,0,7.722,0H6.185a.771.771,0,0,0-.769.769V3.075H5.3A5.264,5.264,0,0,0,.059,8.821a5.5,5.5,0,0,0,4.026,4.641L9.01,14.9a1.417,1.417,0,0,1-.4,2.777H5.425a2.933,2.933,0,0,1-1.643-.5.749.749,0,0,0-.937.1L1.173,18.906a.779.779,0,0,0,.086,1.177,6.794,6.794,0,0,0,4.156,1.441v2.306a.771.771,0,0,0,.769.769H7.722a.771.771,0,0,0,.769-.769V21.515a5.427,5.427,0,0,0,5.078-3.493,5.276,5.276,0,0,0-3.483-6.808Z" transform="translate(324.964 932.4)" fill="#cc9d00"/>
  </g>
</svg>
