<svg xmlns="http://www.w3.org/2000/svg" width="39" height="39" viewBox="0 0 39 39">
  <g id="recurring_payment" transform="translate(-312 -925)">
    <circle id="Ellipse_26" data-name="Ellipse 26" cx="19.5" cy="19.5" r="19.5" transform="translate(312 925)" fill="#c55ead" opacity="0.3"/>
    <path id="calendar-check-solid" d="M15.669,5.75H.431A.431.431,0,0,1,0,5.319V4.025A1.725,1.725,0,0,1,1.725,2.3H3.45V.431A.431.431,0,0,1,3.881,0H5.319A.431.431,0,0,1,5.75.431V2.3h4.6V.431A.431.431,0,0,1,10.781,0h1.438a.431.431,0,0,1,.431.431V2.3h1.725A1.725,1.725,0,0,1,16.1,4.025V5.319A.431.431,0,0,1,15.669,5.75ZM.431,6.9H15.669a.431.431,0,0,1,.431.431v9.344A1.725,1.725,0,0,1,14.375,18.4H1.725A1.725,1.725,0,0,1,0,16.675V7.331A.431.431,0,0,1,.431,6.9Zm11.978,3.448L11.4,9.328a.431.431,0,0,0-.61,0l-3.811,3.78L5.324,11.44a.431.431,0,0,0-.61,0L3.693,12.45a.431.431,0,0,0,0,.61L6.66,16.052a.431.431,0,0,0,.61,0l5.137-5.1a.431.431,0,0,0,0-.61Z" transform="translate(323.9 934.6)" fill="#c55ead"/>
  </g>
</svg>
